<?xml version="1.0" encoding="utf-8"?>
<!-- Generator: Adobe Illustrator 16.0.0, SVG Export Plug-In . SVG Version: 6.00 Build 0)  -->
<!DOCTYPE svg PUBLIC "-//W3C//DTD SVG 1.1//EN" "http://www.w3.org/Graphics/SVG/1.1/DTD/svg11.dtd">
<svg version="1.1" id="图层_1" xmlns="http://www.w3.org/2000/svg" xmlns:xlink="http://www.w3.org/1999/xlink" x="0px" y="0px"
	 width="1024px" height="1024px" viewBox="0 0 1024 1024" enable-background="new 0 0 1024 1024" xml:space="preserve">
<g>
	<path fill-rule="evenodd" clip-rule="evenodd" d="M78.687,727.39c0.03,2.582,0.589,5.153,0.865,7.505
		c26.437,0,52.067,0.63,77.666-0.261c11.299-0.423,14.957,2.429,14.538,14.112c-0.979,25.188-0.283,50.291-0.283,76.367
		c100.728,0,201.172,0,302.099,0c0-19.671,0.135-38.942,0-58.21c-0.209-32.27-0.248-32.218,31.721-31.932
		c19.548,0.138,39.093,0,59.544,0c0-37.762,0-74.711,0-112.339c-48.206,0-95.721,0-143.396,0c0,19.192-0.315,37.628,0.134,56.146
		c0.17,6.816-1.979,8.966-8.657,8.888c-59.232-0.262-118.5-0.421-177.729-0.344c-6.917,0-9.941-2.222-9.911-9.596
		c0.106-16.269,0.18-32.631,0.18-48.901L78.648,680.449C78.687,696.028,78.687,711.744,78.687,727.39z"/>
	<path fill-rule="evenodd" clip-rule="evenodd" d="M564.835,283.615c-27.272,0-52.875-0.499-78.436,0.208
		c-10.645,0.341-14.503-2.089-14.008-13.57c1.008-24.344,0.305-48.69,0.305-73.378c-100.957,0-200.981,0-301.36,0
		c0,24.4-0.56,48.067,0.277,71.629c0.38,11.762-2.683,16.135-15.127,15.529c-22.465-1.046-45.044-0.076-67.508-0.569
		c-7.897-0.137-10.786,1.252-10.747,10.299c0.35,113.447,0.35,226.908,0.417,340.427l146.807-51.621
		c0-18.436-0.074-36.872-0.21-55.302c-0.038-7.57,2.226-10.225,10.255-10.225c103.056,0.148,206.14-0.136,309.189-0.349
		c6.577,0,13.154,0,20.146,0C564.835,438.717,564.835,361.518,564.835,283.615z M409.229,425.09
		c-57.559-0.285-115.154-0.13-172.752,0c-7.438,0-10.469-2.357-10.43-10.302c0.104-25.24-0.067-50.569-1.083-75.738
		c-0.342-8.776,2.612-10.794,10.642-10.717c29.22,0.342,58.405,0.134,87.614,0.134c0-0.054,0-0.211,0-0.342
		c28.793,0,57.598,0.131,86.361-0.077c7.717-0.053,10.919,1.197,10.566,10.436c-0.901,24.836-0.52,49.735,0.079,74.574
		C420.432,421.615,418.34,425.171,409.229,425.09z"/>
	<path fill-rule="evenodd" clip-rule="evenodd" d="M838.45,680.299c-15.76,0.072-15.552,0.15-15.552-15.169
		c-0.073-33.168-0.143-66.424-0.208-99.608l-145.134,51.069c0,32.341,0.029,64.693,0.029,97.024c0,7.314,0,14.534,0,21.777
		c24.485,0,46.952,0.625,69.387-0.283c10.081-0.424,12.799,2.243,12.448,12.391c-0.837,23.85-0.278,47.856-0.278,71.854
		c62.569,0,124.726,0,186.627,0c0-46.752,0-92.726,0-139.056C909.354,680.299,873.92,680.299,838.45,680.299z"/>
	<path fill-rule="evenodd" clip-rule="evenodd" d="M650.532,415.284c27.196-0.077,27.024,0,27.024,26.57
		c-0.037,43.822-0.037,87.651-0.037,131.464l145.029-50.98c-0.142-32.704-0.25-65.396-0.458-98.163
		c-0.026-9.099,4.003-9.232,10.75-9.232c36.593,0.133,73.218,0.054,110.601,0.054c0-44.169,0-88.89,0-134.389
		c-2.327-0.131-4.209-0.413-6.083-0.413c-34.748,0.151-69.495,0.071-104.235,0.57c-8.277,0.13-10.89-2.244-10.783-10.794
		c0.485-31.935,0.104-63.92,0.067-95.925c-0.03-6.879,0-13.704,0-20.862L678.208,203.83c-0.064,21.212-0.022,42.284,0.461,63.362
		c0.234,11.614-3.792,13.968-14.159,13.704c-20.488-0.549-40.968-0.13-62.254-0.13c0,45.27,0,89.591,0,133.394
		c1.871,0.837,2.578,1.467,3.273,1.467C620.513,415.566,635.507,415.284,650.532,415.284z"/>
</g>
</svg>
