<?xml version="1.0" encoding="utf-8"?>
<!-- Generator: Adobe Illustrator 16.0.0, SVG Export Plug-In . SVG Version: 6.00 Build 0)  -->
<!DOCTYPE svg PUBLIC "-//W3C//DTD SVG 1.1//EN" "http://www.w3.org/Graphics/SVG/1.1/DTD/svg11.dtd">
<svg version="1.1" id="图层_1" xmlns="http://www.w3.org/2000/svg" xmlns:xlink="http://www.w3.org/1999/xlink" x="0px" y="0px"
	 width="1024px" height="1024px" viewBox="0 0 1024 1024" enable-background="new 0 0 1024 1024" xml:space="preserve">
<g>
	<path fill="#534741" d="M786.691,918.39c240.892-112.669,268.464-481.399,189.411-650.422
		C861.092,22.111,498.913,9.828,263.632,119.85C52.209,218.75-47.747,473.134,40.172,661.065
		C145.799,886.808,544.599,1031.633,786.691,918.39"/>
	<g>
		<path fill-rule="evenodd" clip-rule="evenodd" fill="#F2F2F2" d="M286.848,519.262c-0.085-7.205,2.31-9.012,9.314-9.012
			c69.795,0,139.592-0.363,209.384-0.597c17.591-0.058,35.178-0.006,53.438-0.006c0-62.257,0-124.23,0-186.024
			c-22.033,0-43.44-0.286-64.84,0.159c-7.164,0.148-9.184-1.989-9.011-9.127c0.485-20.117,0.168-40.251,0.168-60.913
			c-80.607,0-160.617,0-241.148,0c0,21.151-0.207,41.034,0.114,60.911c0.112,6.963-2.272,9.626-9.324,9.409
			c-14.834-0.45-29.684-0.317-44.53-0.42c-21.76-0.157-21.504-0.159-21.45,21.115c0.228,86.374,0.318,172.75,0.443,259.121
			l117.625-41.354C287.068,548.1,287.018,533.681,286.848,519.262z M294.751,359.292c47.018-0.051,94.034-0.177,141.051-0.37
			c5.004-0.022,7.295,1.362,7.194,7.054c-0.372,20.816-0.481,41.649-0.114,62.466c0.121,7.017-2.63,8.46-8.957,8.375
			c-22.714-0.302-45.436-0.12-68.152-0.12c0,0.07,0,0.14,0.001,0.209c-22.715,0-45.436-0.246-68.146,0.146
			c-7.168,0.127-10.311-1.58-10.208-9.379c0.267-20.19,0.007-40.392-0.428-60.574C286.864,361.162,289.268,359.296,294.751,359.292z
			"/>
		<polygon fill-rule="evenodd" clip-rule="evenodd" fill="#F2F2F2" points="168.958,598.296 168.958,604.037 185.283,598.296 		"/>
		<g>
			<path fill-rule="evenodd" clip-rule="evenodd" fill="#F2F2F2" d="M443.993,576.901c0,15.022-0.349,29.219,0.158,43.391
				c0.229,6.438-1.996,8.151-8.056,8.119c-47.057-0.27-94.116-0.35-141.174-0.34c-6.035,0-8.252-2.083-8.173-8.383
				c0.158-12.736,0.255-25.475,0.285-38.211l-117.625,41.356c0.006,6.479,0.016,12.956,0.024,19.436
				c0.011,8.075,0.002,16.159,0.002,24.315c21.511,0,42.616,0.379,63.699-0.183c8.503-0.227,11.604,1.863,11.285,10.94
				c-0.703,20.083-0.218,40.206-0.218,61.199c80.183,0,160.247,0,240.974,0c0-20.06,0.672-40.523-0.298-60.908
				c-0.464-9.694,2.585-11.656,11.464-11.407c20.724,0.59,41.484,0.189,62.776,0.189c0-30.186,0-59.668,0-89.515
				C520.335,576.901,482.085,576.901,443.993,576.901z"/>
			<polygon fill-rule="evenodd" clip-rule="evenodd" fill="#F2F2F2" points="168.958,622.993 168.958,738.034 264.42,738.034 
				264.42,617.25 185.283,617.25 			"/>
		</g>
		<path fill-rule="evenodd" clip-rule="evenodd" fill="#F2F2F2" d="M807.876,416.036c-0.043-7.264,3.201-7.431,8.587-7.405
			c29.282,0.148,58.565,0.069,88.482,0.069c0-35.342,0-71.149,0-107.498c-1.867-0.143-3.366-0.357-4.868-0.354
			c-27.795,0.108-55.596,0.066-83.387,0.489c-6.624,0.1-8.701-1.816-8.608-8.617c0.358-25.579,0.067-51.171,0.025-76.756
			c-0.013-5.478-0.008-10.961-0.008-16.703l-115.325,40.548c-0.043,16.957-0.013,33.815,0.371,50.649
			c0.21,9.313-3.056,11.217-11.326,10.975c-16.377-0.479-32.782-0.144-49.81-0.144c0,36.226,0,71.685,0,106.731
			c1.502,0.674,2.075,1.154,2.643,1.15c11.99-0.059,23.975-0.244,35.964-0.262c21.771-0.036,21.639,0,21.627,21.273
			c-0.015,36.761-0.01,73.524,0,110.288l115.98-40.78C808.145,471.805,808.043,443.918,807.876,416.036z"/>
		<path fill-rule="evenodd" clip-rule="evenodd" fill="#F2F2F2" d="M820.945,644.238c-12.61,0.014-12.436,0.054-12.453-12.155
			c-0.049-37.898-0.09-75.791-0.177-113.683l-116.078,40.813c0.014,37.225,0.026,74.449,0.033,111.676c0,5.814,0,11.628,0,17.384
			c19.578,0,37.561,0.484,55.498-0.214c8.074-0.316,10.25,1.778,9.969,9.882c-0.655,19.117-0.21,38.271-0.21,57.495
			c50.029,0,99.754,0,149.266,0c0-37.383,0-74.159,0-111.203C877.68,644.232,849.311,644.211,820.945,644.238z"/>
		<rect x="692.768" y="634.144" fill-rule="evenodd" clip-rule="evenodd" fill="#F2F2F2" width="95.459" height="120.785"/>
	</g>
</g>
</svg>
