<?xml version="1.0" encoding="utf-8"?>
<!-- Generator: Adobe Illustrator 16.0.0, SVG Export Plug-In . SVG Version: 6.00 Build 0)  -->
<!DOCTYPE svg PUBLIC "-//W3C//DTD SVG 1.1//EN" "http://www.w3.org/Graphics/SVG/1.1/DTD/svg11.dtd">
<svg version="1.1" id="图层_1" xmlns="http://www.w3.org/2000/svg" xmlns:xlink="http://www.w3.org/1999/xlink" x="0px" y="0px"
	 width="1024px" height="1024px" viewBox="0 0 1024 1024" enable-background="new 0 0 1024 1024" xml:space="preserve">
<g>
	<path fill-rule="evenodd" clip-rule="evenodd" fill="#1A1A1A" d="M237.508,583.83c102.317,0.091,204.631-0.179,306.947-0.358
		c6.529-0.01,13.058,0,20.029,0c0-77.429,0-154.082,0-231.418c-27.101,0-52.519-0.487-77.901,0.234
		c-10.564,0.299-14.38-2.082-13.902-13.532c1.006-24.132,0.305-48.333,0.305-72.838c-100.23,0-199.533,0-299.168,0
		c0,24.289-0.579,47.75,0.246,71.161c0.409,11.662-2.667,15.977-15.017,15.397c-22.299-1.043-44.683-0.092-67.019-0.57
		c-7.821-0.17-10.708,1.246-10.679,10.215c0.427,128.188,0.37,256.382,0.476,384.571c0.002,2.582,0.57,5.164,0.841,7.465
		c26.249,0,51.702,0.612,77.104-0.28c11.235-0.391,14.864,2.413,14.431,14.052c-0.926,24.922-0.283,49.901-0.283,75.811
		c100.033,0,199.724,0,299.955,0c0-19.536,0.094-38.665-0.021-57.799c-0.188-32.067-0.243-31.994,31.48-31.745
		c19.419,0.146,38.837,0.027,59.133,0.027c0-37.518,0-74.156,0-111.519c-47.847,0-95.031,0-142.37,0
		c0,19.06-0.298,37.394,0.156,55.709c0.17,6.777-1.992,8.908-8.636,8.877c-58.8-0.298-117.604-0.418-176.407-0.391
		c-6.899,0.004-9.886-2.169-9.838-9.484c0.225-34.493,0.211-68.991-0.05-103.486C227.264,586.397,229.545,583.825,237.508,583.83z
		 M227.039,407.096c-0.352-8.74,2.583-10.733,10.573-10.642c28.98,0.34,57.967,0.133,86.951,0.133c0-0.11,0-0.225,0-0.34
		c28.592,0,57.186,0.156,85.775-0.101c7.632-0.069,10.84,1.204,10.5,10.421c-0.91,24.638-0.538,49.345,0.066,74.006
		c0.207,8.477-1.875,11.987-10.908,11.946c-57.179-0.252-114.358-0.166-171.54-0.009c-7.37,0.022-10.371-2.357-10.335-10.243
		C228.231,457.212,228.042,432.133,227.039,407.096z"/>
	<rect x="446.343" y="265.917" fill-rule="evenodd" clip-rule="evenodd" fill="#1A1A1A" width="118.486" height="149.913"/>
	<path fill-rule="evenodd" clip-rule="evenodd" fill="#1A1A1A" d="M836.1,705.723c-15.652,0.015-15.438,0.065-15.457-15.09
		c-0.122-94.088-0.209-188.178-0.765-282.265c-0.054-9.015,3.972-9.222,10.657-9.19c36.344,0.184,72.688,0.088,109.822,0.088
		c0-43.868,0-88.31,0-133.427c-2.318-0.174-4.182-0.441-6.042-0.437c-34.501,0.133-69.007,0.083-103.5,0.606
		c-8.223,0.124-10.799-2.256-10.684-10.697c0.444-31.746,0.083-63.511,0.027-95.266c-0.012-6.8-0.002-13.605-0.002-20.732
		l-143.143,50.328c-0.051,21.044-0.014,41.969,0.46,62.862c0.26,11.561-3.789,13.923-14.058,13.624
		c-20.328-0.598-40.687-0.179-61.819-0.179c0,44.961,0,88.971,0,132.471c1.864,0.836,2.574,1.434,3.28,1.429
		c14.878-0.073,29.756-0.303,44.635-0.326c27.022-0.046,26.858,0,26.849,26.402c-0.051,104.292,0.008,208.581,0.029,312.876
		c0.002,7.215,0,14.432,0,21.577c24.3,0,46.62,0.599,68.882-0.266c10.021-0.395,12.721,2.206,12.376,12.263
		c-0.815,23.728-0.262,47.503-0.262,71.363c62.09,0,123.81,0,185.264,0c0-46.399,0-92.044,0-138.025
		C906.514,705.714,871.306,705.69,836.1,705.723z"/>
</g>
</svg>
