<?xml version="1.0" encoding="utf-8"?>
<!-- Generator: Adobe Illustrator 16.0.0, SVG Export Plug-In . SVG Version: 6.00 Build 0)  -->
<!DOCTYPE svg PUBLIC "-//W3C//DTD SVG 1.1//EN" "http://www.w3.org/Graphics/SVG/1.1/DTD/svg11.dtd">
<svg version="1.1" id="图层_1" xmlns="http://www.w3.org/2000/svg" xmlns:xlink="http://www.w3.org/1999/xlink" x="0px" y="0px"
	 width="960px" height="560px" viewBox="0 0 960 560" enable-background="new 0 0 960 560" xml:space="preserve">
<g>
	<path fill="#534741" d="M578.22,415.674c83.365-38.994,92.905-166.597,65.548-225.09c-39.8-85.083-152.393-55.35-233.815-17.276
		c-73.166,34.226-120.502,88.277-90.076,153.313C356.43,404.744,494.44,454.863,578.22,415.674"/>
	<g>
		<path fill-rule="evenodd" clip-rule="evenodd" fill="#F2F2F2" d="M404.29,293.378c-0.033-2.823,0.905-3.532,3.651-3.532
			c27.356,0,54.712-0.142,82.067-0.233c6.895-0.022,13.788-0.003,20.945-0.003c0-24.401,0-48.691,0-72.911
			c-8.636,0-17.026-0.112-25.414,0.063c-2.808,0.058-3.6-0.779-3.532-3.577c0.19-7.885,0.066-15.776,0.066-23.875
			c-31.593,0-62.953,0-94.517,0c0,8.29-0.081,16.083,0.045,23.874c0.044,2.729-0.891,3.773-3.655,3.688
			c-5.814-0.176-11.634-0.125-17.453-0.165c-8.528-0.062-8.429-0.063-8.407,8.276c0.089,33.854,0.125,67.708,0.173,101.561
			l46.103-16.209C404.376,304.681,404.356,299.029,404.29,293.378z M407.388,230.679c18.428-0.02,36.856-0.069,55.284-0.145
			c1.961-0.008,2.86,0.534,2.82,2.765c-0.146,8.159-0.188,16.324-0.045,24.483c0.047,2.75-1.031,3.316-3.51,3.283
			c-8.903-0.118-17.808-0.047-26.712-0.047c0,0.028,0,0.055,0,0.083c-8.903,0-17.809-0.097-26.709,0.057
			c-2.81,0.05-4.042-0.619-4.001-3.676c0.104-7.913,0.002-15.831-0.168-23.741C404.296,231.412,405.238,230.68,407.388,230.679z"/>
		<polygon fill-rule="evenodd" clip-rule="evenodd" fill="#F2F2F2" points="358.084,324.355 358.084,326.605 364.482,324.355 		"/>
		<g>
			<path fill-rule="evenodd" clip-rule="evenodd" fill="#F2F2F2" d="M465.882,315.97c0,5.888-0.137,11.452,0.062,17.007
				c0.09,2.523-0.782,3.195-3.158,3.183c-18.443-0.106-36.888-0.138-55.332-0.134c-2.365,0-3.234-0.816-3.204-3.285
				c0.062-4.992,0.1-9.984,0.112-14.977l-46.103,16.209c0.003,2.539,0.006,5.078,0.01,7.617c0.004,3.166,0.001,6.334,0.001,9.531
				c8.431,0,16.703,0.148,24.966-0.072c3.333-0.088,4.548,0.73,4.423,4.288c-0.275,7.872-0.085,15.759-0.085,23.987
				c31.427,0,62.808,0,94.448,0c0-7.863,0.264-15.883-0.117-23.873c-0.182-3.8,1.014-4.568,4.494-4.471
				c8.122,0.23,16.259,0.074,24.604,0.074c0-11.831,0-23.387,0-35.085C495.804,315.97,480.813,315.97,465.882,315.97z"/>
			<polygon fill-rule="evenodd" clip-rule="evenodd" fill="#F2F2F2" points="358.084,334.035 358.084,379.125 395.5,379.125 
				395.5,331.784 364.482,331.784 			"/>
		</g>
		<path fill-rule="evenodd" clip-rule="evenodd" fill="#F2F2F2" d="M608.504,252.919c-0.017-2.847,1.255-2.912,3.366-2.902
			c11.477,0.058,22.954,0.027,34.68,0.027c0-13.853,0-27.887,0-42.134c-0.731-0.056-1.319-0.14-1.907-0.138
			c-10.895,0.042-21.791,0.026-32.684,0.191c-2.597,0.039-3.41-0.712-3.374-3.377c0.141-10.025,0.026-20.056,0.01-30.084
			c-0.005-2.147-0.003-4.296-0.003-6.547l-45.201,15.893c-0.017,6.646-0.005,13.254,0.146,19.852
			c0.082,3.65-1.197,4.396-4.439,4.302c-6.419-0.188-12.849-0.057-19.522-0.057c0,14.199,0,28.096,0,41.833
			c0.589,0.264,0.813,0.453,1.036,0.451c4.699-0.023,9.396-0.096,14.096-0.103c8.533-0.015,8.481,0,8.477,8.337
			c-0.006,14.408-0.004,28.818,0,43.226l45.458-15.982C608.609,274.777,608.569,263.848,608.504,252.919z"/>
		<path fill-rule="evenodd" clip-rule="evenodd" fill="#F2F2F2" d="M613.627,342.362c-4.942,0.005-4.874,0.021-4.881-4.765
			c-0.02-14.854-0.035-29.705-0.069-44.557l-45.496,15.996c0.005,14.59,0.01,29.18,0.013,43.771c0,2.278,0,4.558,0,6.813
			c7.674,0,14.722,0.189,21.752-0.084c3.165-0.124,4.018,0.697,3.907,3.873c-0.257,7.493-0.082,15-0.082,22.535
			c19.608,0,39.098,0,58.504,0c0-14.652,0-29.066,0-43.586C635.863,342.359,624.744,342.352,613.627,342.362z"/>
		<rect x="563.389" y="338.405" fill-rule="evenodd" clip-rule="evenodd" fill="#F2F2F2" width="37.414" height="47.341"/>
	</g>
</g>
</svg>
