<?xml version="1.0" encoding="utf-8"?>
<!-- Generator: Adobe Illustrator 16.0.0, SVG Export Plug-In . SVG Version: 6.00 Build 0)  -->
<!DOCTYPE svg PUBLIC "-//W3C//DTD SVG 1.1//EN" "http://www.w3.org/Graphics/SVG/1.1/DTD/svg11.dtd">
<svg version="1.1" id="图层_1" xmlns="http://www.w3.org/2000/svg" xmlns:xlink="http://www.w3.org/1999/xlink" x="0px" y="0px"
	 width="200px" height="200px" viewBox="0 0 200 200" enable-background="new 0 0 200 200" xml:space="preserve">
<path fill="#FFFFFF" d="M122.007,61.988c2.646-4.757,17.052,1.098,19.731-3.636c0.752-1.324,1.51-2.644,2.277-3.957
	c2.623-4.48,5.553-8.784,8.346-13.165c2.048,4.635,4.433,9.16,6.008,13.955c0.906,2.769,0.5,5.971,0.744,9.856
	c5.138,1.511,15.498,0.682,20.371,2.113c-0.148,1.84-5.371,5.831-5.635,5.887c-18.129,4.002-16.703,17.873-16.436,31.577
	c0.355,17.864,0.086,35.739,0.086,53.612c-1.709,0.297-3.42,0.592-5.133,0.885c-2.635-12.758-6.049-25.422-7.67-38.307
	c-1.325-10.525,0.587-21.493-1.077-31.924c-0.468-2.958-2.015-5.745-3.863-8.475c-1.853-2.731-21.871-8.829-23.553-11.565
	C116.146,68.91,122.007,61.988,122.007,61.988z"/>
<path fill="#FFFFFF" d="M111.514,66.727c-12.188,0-24.392,0.302-36.573-0.089c-11.075-0.355-18.894,2.575-19.157,16.305
	c8.974,1.483,18.092,2.991,27.213,4.499c0.288,1.62,0.577,3.237,0.868,4.859c-7.035,3.057-13.946,6.447-21.128,9.098
	c-14.193,5.24-9.943,16.283-7.196,25.438c2.949,9.824,10.892,10.813,19.741,6.509c9.009-4.381,18.147-8.5,28.588-13.371
	c1.521,16.545-9.815,22.778-20.038,27.53c-12.605,5.861-25.211,2.663-34.221-8.548c-3.726-4.645-6.734-10.479-8.117-16.24
	c-2.141-8.933-5.197-15.725-14.727-19.256c-7.096-2.627-7.764-9.479-0.602-12.207c14.308-5.448,15.453-16.69,13.854-28.484
	c-1.377-10.158,2.658-13.557,11.43-12.672c16.606,1.67,33.179,3.774,49.676,6.289c3.908,0.595,7.461,3.535,11.177,5.395
	C112.043,63.429,111.777,65.077,111.514,66.727z"/>
</svg>
